<svg width="479" height="110" viewBox="0 0 479 110" fill="none" xmlns="http://www.w3.org/2000/svg">
<g filter="url(#filter0_dd_744_13)">
<rect x="15.5" y="4.5" width="459" height="97" fill="#E5E5E5" stroke="black"/>
<rect x="4.5" y="0.5" width="463" height="94" fill="#002AFF" stroke="black"/>
<rect x="4.5" y="0.5" width="463" height="33" fill="#4C69FF" stroke="black"/>
<rect x="435.5" y="7.5" width="20.5385" height="20" fill="#E5E5E5" stroke="black"/>
<line x1="435.346" y1="7.47939" x2="456.346" y2="27.6394" stroke="black"/>
<line x1="435.486" y1="27.6464" x2="455.646" y2="7.48645" stroke="black"/>
<path d="M62.7152 46.8V49.845H59.2852V46.8H62.7152ZM62.6452 72.525C62.6452 74.6483 62.3185 76.1767 61.6652 77.11C61.0119 78.0433 59.8802 78.51 58.2702 78.51C57.0569 78.51 56.0535 78.2883 55.2602 77.845V75.395C56.0302 75.745 56.6369 75.92 57.0802 75.92C57.9435 75.92 58.5385 75.7333 58.8652 75.36C59.1919 75.01 59.3552 74.4033 59.3552 73.54V54.115H62.6452V72.525ZM75.587 53.765C78.0837 53.765 80.0787 54.535 81.572 56.075C83.0653 57.615 83.812 59.7267 83.812 62.41V63.705C83.812 66.3883 83.077 68.5 81.607 70.04C80.137 71.58 78.1303 72.35 75.587 72.35C73.0437 72.35 71.037 71.58 69.567 70.04C68.097 68.5 67.362 66.3883 67.362 63.705V62.41C67.362 59.7267 68.1087 57.615 69.602 56.075C71.0953 54.535 73.0903 53.765 75.587 53.765ZM75.587 56.39C74.0237 56.39 72.8103 56.9267 71.947 58C71.0837 59.0733 70.652 60.6483 70.652 62.725V63.39C70.652 65.42 71.072 66.9833 71.912 68.08C72.7753 69.1767 74.0003 69.725 75.587 69.725C77.127 69.725 78.3287 69.1883 79.192 68.115C80.0787 67.0183 80.522 65.4433 80.522 63.39V62.725C80.522 60.695 80.0903 59.1317 79.227 58.035C78.387 56.9383 77.1737 56.39 75.587 56.39ZM95.7196 53.765C97.1896 53.765 98.4846 54.08 99.6046 54.71C100.748 55.3167 101.635 56.1917 102.265 57.335C102.895 58.4783 103.21 59.8083 103.21 61.325V63.81H90.7146C90.7613 65.7 91.2046 67.1583 92.0446 68.185C92.8846 69.2117 94.133 69.725 95.7896 69.725C97.2596 69.725 98.3446 69.2933 99.0446 68.43C99.7446 67.5667 100.095 66.54 100.095 65.35H103.21C103.21 66.75 102.883 67.975 102.23 69.025C101.6 70.075 100.713 70.8917 99.5696 71.475C98.4496 72.0583 97.1663 72.35 95.7196 72.35H95.5796C93.0596 72.35 91.0646 71.545 89.5946 69.935C88.148 68.3017 87.4246 66.1317 87.4246 63.425V62.725C87.4246 60.9517 87.7513 59.3883 88.4046 58.035C89.058 56.6817 89.9913 55.6317 91.2046 54.885C92.418 54.1383 93.8413 53.765 95.4746 53.765H95.7196ZM95.5446 56.39C94.2146 56.39 93.1296 56.7983 92.2896 57.615C91.473 58.4317 90.9713 59.645 90.7846 61.255H99.9546V60.835C99.9546 59.505 99.5463 58.4317 98.7296 57.615C97.9363 56.7983 96.8746 56.39 95.5446 56.39ZM122.588 72H120.138C119.975 71.2533 119.823 70.4367 119.683 69.55C118.353 71.4167 116.51 72.35 114.153 72.35C111.913 72.35 110.14 71.5217 108.833 69.865C107.55 68.2083 106.908 65.9333 106.908 63.04V62.655C106.908 59.925 107.538 57.7667 108.798 56.18C110.081 54.57 111.866 53.765 114.153 53.765C116.37 53.765 118.085 54.64 119.298 56.39V46.8H122.588V72ZM114.748 56.39C113.185 56.39 112.03 56.9383 111.283 58.035C110.56 59.1083 110.198 60.7883 110.198 63.075C110.198 65.3617 110.571 67.0417 111.318 68.115C112.065 69.1883 113.208 69.725 114.748 69.725C117.805 69.725 119.333 67.5083 119.333 63.075C119.333 60.7883 118.948 59.1083 118.178 58.035C117.408 56.9383 116.265 56.39 114.748 56.39ZM147.263 53.765C149.106 53.765 150.541 54.3017 151.568 55.375C152.595 56.4483 153.108 57.9767 153.108 59.96V72H149.818V60.555C149.818 57.7783 148.745 56.39 146.598 56.39C145.851 56.39 145.151 56.6117 144.498 57.055C143.868 57.4983 143.355 58.105 142.958 58.875C142.585 59.6217 142.398 60.45 142.398 61.36V72H139.108V60.555C139.108 57.7783 138.035 56.39 135.888 56.39C135.141 56.39 134.441 56.6117 133.788 57.055C133.158 57.4983 132.645 58.105 132.248 58.875C131.875 59.6217 131.688 60.45 131.688 61.36V72H128.398V54.115H130.778L131.233 56.74C132.586 54.7567 134.465 53.765 136.868 53.765C139.225 53.765 140.858 54.7567 141.768 56.74C142.561 55.62 143.413 54.85 144.323 54.43C145.233 53.9867 146.213 53.765 147.263 53.765ZM173.695 68.5C173.695 68.92 173.788 69.235 173.975 69.445C174.161 69.6317 174.395 69.725 174.675 69.725C175.188 69.725 175.713 69.5617 176.25 69.235V71.65C175.526 72.1167 174.791 72.35 174.045 72.35C172.785 72.35 171.898 72.0933 171.385 71.58C170.895 71.0667 170.626 70.3433 170.58 69.41C169.95 70.3433 169.133 71.0667 168.13 71.58C167.15 72.0933 166.018 72.35 164.735 72.35C162.938 72.35 161.456 71.825 160.29 70.775C159.146 69.7017 158.575 68.1617 158.575 66.155V54.115H161.865V65.56C161.865 68.3367 163.125 69.725 165.645 69.725C166.461 69.725 167.231 69.5033 167.955 69.06C168.701 68.6167 169.296 68.0217 169.74 67.275C170.183 66.505 170.405 65.665 170.405 64.755V54.115H173.695V68.5ZM188.54 47.64C190.22 47.64 191.644 47.9783 192.81 48.655C193.977 49.3317 194.852 50.2067 195.435 51.28C196.019 52.3533 196.31 53.485 196.31 54.675C196.31 56.355 195.972 57.7317 195.295 58.805C194.619 59.8783 193.534 60.9867 192.04 62.13L185.355 67.24C184.819 67.6133 184.399 67.9517 184.095 68.255C183.815 68.535 183.675 68.745 183.675 68.885H196.415V72H179.93V71.16C179.93 69.97 180.21 68.8383 180.77 67.765C181.354 66.6683 182.159 65.735 183.185 64.965L190.15 59.715C191.13 58.9217 191.83 58.14 192.25 57.37C192.67 56.6 192.88 55.7483 192.88 54.815C192.88 54.115 192.705 53.4617 192.355 52.855C192.005 52.225 191.492 51.7233 190.815 51.35C190.139 50.9533 189.322 50.755 188.365 50.755C187.385 50.755 186.51 50.965 185.74 51.385C184.994 51.805 184.41 52.365 183.99 53.065C183.57 53.765 183.36 54.535 183.36 55.375V55.865C183.36 56.0517 183.372 56.1917 183.395 56.285H179.965L179.93 55.935V55.655C179.93 54.3017 180.234 53.0183 180.84 51.805C181.447 50.5683 182.392 49.565 183.675 48.795C184.959 48.025 186.58 47.64 188.54 47.64ZM209.864 47.64C211.427 47.64 212.815 47.9667 214.029 48.62C215.265 49.2733 216.222 50.195 216.899 51.385C217.599 52.5517 217.949 53.905 217.949 55.445H214.519C214.519 53.9983 214.099 52.855 213.259 52.015C212.419 51.175 211.287 50.755 209.864 50.755C209.024 50.755 208.242 50.965 207.519 51.385C206.819 51.805 206.259 52.3767 205.839 53.1C205.419 53.8 205.209 54.57 205.209 55.41V59.19C206.655 57.65 208.464 56.88 210.634 56.88C212.034 56.88 213.317 57.2067 214.484 57.86C215.674 58.5133 216.607 59.4117 217.284 60.555C217.984 61.675 218.334 62.9117 218.334 64.265C218.334 65.8517 217.984 67.2633 217.284 68.5C216.584 69.7133 215.604 70.6583 214.344 71.335C213.084 72.0117 211.66 72.35 210.074 72.35C208.487 72.35 207.064 72.0117 205.804 71.335C204.544 70.635 203.552 69.6667 202.829 68.43C202.129 67.17 201.779 65.7583 201.779 64.195V55.725C201.779 54.2783 202.14 52.9367 202.864 51.7C203.587 50.44 204.567 49.4483 205.804 48.725C207.064 48.0017 208.417 47.64 209.864 47.64ZM210.074 59.995C208.697 59.995 207.542 60.4383 206.609 61.325C205.675 62.1883 205.209 63.285 205.209 64.615C205.209 65.945 205.675 67.0533 206.609 67.94C207.542 68.8033 208.697 69.235 210.074 69.235C211.45 69.235 212.594 68.815 213.504 67.975C214.437 67.1117 214.904 65.9917 214.904 64.615C214.904 63.2383 214.437 62.13 213.504 61.29C212.594 60.4267 211.45 59.995 210.074 59.995ZM236.612 47.605C240.975 47.605 244.37 48.7133 246.797 50.93C249.247 53.1233 250.472 56.32 250.472 60.52C250.472 63.0867 250.157 65.175 249.527 66.785C248.897 68.3717 248.08 69.515 247.077 70.215C246.097 70.8917 245.047 71.23 243.927 71.23C242.76 71.23 241.897 70.985 241.337 70.495C240.777 69.9817 240.462 69.2117 240.392 68.185L240.287 68.29C239.004 70.25 237.067 71.23 234.477 71.23C232.634 71.23 231.257 70.8333 230.347 70.04C229.437 69.2467 228.982 67.9867 228.982 66.26C228.982 64.8833 229.332 63.81 230.032 63.04C230.755 62.2467 231.922 61.675 233.532 61.325C235.142 60.975 237.37 60.8 240.217 60.8V59.26C240.217 58.1633 239.89 57.3817 239.237 56.915C238.584 56.4483 237.627 56.215 236.367 56.215C235.2 56.215 234.279 56.46 233.602 56.95C232.949 57.4167 232.622 58.0583 232.622 58.875V59.26H229.612C229.565 58.9333 229.542 58.5717 229.542 58.175C229.542 57.4517 229.822 56.7517 230.382 56.075C230.965 55.375 231.782 54.815 232.832 54.395C233.882 53.975 235.084 53.765 236.437 53.765H236.752C238.945 53.765 240.59 54.2083 241.687 55.095C242.784 55.9817 243.332 57.2533 243.332 58.91V67.485C243.332 68.3717 243.764 68.815 244.627 68.815C245.84 68.815 246.774 68.1267 247.427 66.75C248.08 65.3733 248.407 63.2733 248.407 60.45C248.407 56.95 247.38 54.255 245.327 52.365C243.274 50.475 240.357 49.53 236.577 49.53C232.54 49.53 229.425 50.6733 227.232 52.96C225.039 55.2233 223.942 58.4667 223.942 62.69C223.942 67.03 224.864 70.2383 226.707 72.315C228.574 74.3917 231.467 75.43 235.387 75.43C236.484 75.43 237.627 75.29 238.817 75.01C240.007 74.7533 240.789 74.52 241.162 74.31V76.41C240.299 76.76 239.272 77.005 238.082 77.145C236.915 77.285 236.017 77.355 235.387 77.355C230.954 77.355 227.594 76.13 225.307 73.68C223.02 71.23 221.877 67.5433 221.877 62.62C221.877 59.3067 222.484 56.53 223.697 54.29C224.934 52.05 226.66 50.3817 228.877 49.285C231.094 48.165 233.672 47.605 236.612 47.605ZM240.217 63.215C237.93 63.215 236.204 63.3317 235.037 63.565C233.87 63.7983 233.077 64.1483 232.657 64.615C232.26 65.0583 232.062 65.6767 232.062 66.47C232.062 68.01 233.217 68.78 235.527 68.78C236.857 68.78 237.965 68.3133 238.852 67.38C239.762 66.4233 240.217 65.245 240.217 63.845V63.215ZM270.799 50.895C270.799 52.085 270.484 53.0883 269.854 53.905C269.224 54.6983 268.349 55.2117 267.229 55.445L267.159 55.55C268.325 56.5767 268.909 57.86 268.909 59.4C268.909 61.08 268.279 62.4333 267.019 63.46C265.759 64.4867 264.044 65 261.874 65H259.494C258.794 65 258.21 65.1867 257.744 65.56C257.277 65.91 257.044 66.365 257.044 66.925C257.044 67.485 257.265 67.9283 257.709 68.255C258.152 68.5817 258.747 68.745 259.494 68.745H266.249C267.625 68.745 268.722 69.1767 269.539 70.04C270.379 70.9033 270.799 72 270.799 73.33C270.799 74.9167 270.192 76.1883 268.979 77.145C267.789 78.1017 266.179 78.58 264.149 78.58H257.114C256.32 78.58 255.585 78.37 254.909 77.95C254.255 77.53 253.73 76.9933 253.334 76.34C252.96 75.71 252.774 75.0567 252.774 74.38C252.774 73.4 253.007 72.5483 253.474 71.825C253.964 71.1017 254.605 70.565 255.399 70.215C254.325 69.5617 253.789 68.5933 253.789 67.31C253.789 66.47 254.034 65.7467 254.524 65.14C255.014 64.5333 255.702 64.0783 256.589 63.775C255.025 62.9117 254.244 61.4533 254.244 59.4C254.244 57.6733 254.874 56.3083 256.134 55.305C257.417 54.2783 259.19 53.765 261.454 53.765H261.594C262.9 53.765 264.09 53.9633 265.164 54.36C266.82 53.5433 267.765 52.3883 267.999 50.895H270.799ZM261.559 56.39C260.322 56.39 259.33 56.635 258.584 57.125C257.86 57.5917 257.499 58.35 257.499 59.4C257.499 60.45 257.86 61.2083 258.584 61.675C259.33 62.1417 260.322 62.375 261.559 62.375C262.795 62.375 263.787 62.1417 264.534 61.675C265.28 61.2083 265.654 60.45 265.654 59.4C265.654 58.35 265.28 57.5917 264.534 57.125C263.787 56.635 262.795 56.39 261.559 56.39ZM258.059 71.895C257.499 71.895 257.02 72.0933 256.624 72.49C256.227 72.8867 256.029 73.365 256.029 73.925C256.029 74.485 256.227 74.9633 256.624 75.36C257.02 75.7567 257.499 75.955 258.059 75.955H264.814C265.56 75.955 266.202 75.7333 266.739 75.29C267.275 74.87 267.544 74.38 267.544 73.82C267.544 73.2367 267.345 72.77 266.949 72.42C266.552 72.07 265.992 71.895 265.269 71.895H258.059ZM293.176 53.765C295.02 53.765 296.455 54.3017 297.481 55.375C298.508 56.4483 299.021 57.9767 299.021 59.96V72H295.731V60.555C295.731 57.7783 294.658 56.39 292.511 56.39C291.765 56.39 291.065 56.6117 290.411 57.055C289.781 57.4983 289.268 58.105 288.871 58.875C288.498 59.6217 288.311 60.45 288.311 61.36V72H285.021V60.555C285.021 57.7783 283.948 56.39 281.801 56.39C281.055 56.39 280.355 56.6117 279.701 57.055C279.071 57.4983 278.558 58.105 278.161 58.875C277.788 59.6217 277.601 60.45 277.601 61.36V72H274.311V54.115H276.691L277.146 56.74C278.5 54.7567 280.378 53.765 282.781 53.765C285.138 53.765 286.771 54.7567 287.681 56.74C288.475 55.62 289.326 54.85 290.236 54.43C291.146 53.9867 292.126 53.765 293.176 53.765ZM311.698 53.765C314.054 53.765 315.804 54.2317 316.948 55.165C318.114 56.0983 318.698 57.4517 318.698 59.225V68.5C318.698 68.92 318.791 69.235 318.978 69.445C319.164 69.6317 319.398 69.725 319.678 69.725C320.214 69.725 320.751 69.5617 321.288 69.235V71.65C320.494 72.1167 319.596 72.35 318.593 72.35C317.589 72.35 316.843 72.07 316.353 71.51C315.863 70.9267 315.594 70.1333 315.548 69.13C314.101 71.2767 312.013 72.35 309.283 72.35C307.323 72.35 305.853 71.93 304.873 71.09C303.916 70.2267 303.438 68.8733 303.438 67.03C303.438 65.5833 303.811 64.4517 304.558 63.635C305.304 62.795 306.541 62.1883 308.268 61.815C309.994 61.4417 312.374 61.255 315.408 61.255V59.61C315.408 58.42 315.058 57.5917 314.358 57.125C313.658 56.635 312.643 56.39 311.313 56.39C310.053 56.39 309.073 56.635 308.373 57.125C307.673 57.615 307.323 58.3033 307.323 59.19V59.61H304.103C304.056 59.2833 304.033 58.8983 304.033 58.455C304.033 57.6383 304.359 56.8683 305.013 56.145C305.666 55.4217 306.553 54.85 307.673 54.43C308.793 53.9867 310.029 53.765 311.383 53.765H311.698ZM315.408 63.81C312.958 63.81 311.103 63.9383 309.843 64.195C308.606 64.4283 307.778 64.79 307.358 65.28C306.938 65.77 306.728 66.4467 306.728 67.31C306.728 68.92 307.953 69.725 310.403 69.725C311.266 69.725 312.083 69.515 312.853 69.095C313.623 68.6517 314.241 68.0333 314.708 67.24C315.174 66.4467 315.408 65.5367 315.408 64.51V63.81ZM328.496 46.8V49.845H325.066V46.8H328.496ZM328.426 54.115V72H325.136V54.115H328.426ZM337.658 46.8V72H334.368V46.8H337.658ZM346.638 68.115V72H343.103V68.115H346.638ZM358.968 53.765C360.391 53.765 361.663 54.08 362.783 54.71C363.926 55.3167 364.813 56.18 365.443 57.3C366.073 58.42 366.388 59.7033 366.388 61.15H363.133C363.133 59.7033 362.759 58.5483 362.013 57.685C361.289 56.8217 360.239 56.39 358.863 56.39C357.416 56.39 356.261 56.88 355.398 57.86C354.558 58.8167 354.138 60.135 354.138 61.815V63.705C354.138 65.735 354.558 67.2517 355.398 68.255C356.238 69.235 357.428 69.725 358.968 69.725C360.391 69.725 361.453 69.305 362.153 68.465C362.876 67.6017 363.238 66.4467 363.238 65H366.388C366.388 67.24 365.711 69.025 364.358 70.355C363.028 71.685 361.243 72.35 359.003 72.35H358.723C357.136 72.35 355.748 71.9883 354.558 71.265C353.368 70.5183 352.446 69.48 351.793 68.15C351.163 66.82 350.848 65.2683 350.848 63.495V62.655C350.848 60.8817 351.174 59.33 351.828 58C352.481 56.6467 353.403 55.6083 354.593 54.885C355.783 54.1383 357.148 53.765 358.688 53.765H358.968ZM378.146 53.765C380.642 53.765 382.637 54.535 384.131 56.075C385.624 57.615 386.371 59.7267 386.371 62.41V63.705C386.371 66.3883 385.636 68.5 384.166 70.04C382.696 71.58 380.689 72.35 378.146 72.35C375.602 72.35 373.596 71.58 372.126 70.04C370.656 68.5 369.921 66.3883 369.921 63.705V62.41C369.921 59.7267 370.667 57.615 372.161 56.075C373.654 54.535 375.649 53.765 378.146 53.765ZM378.146 56.39C376.582 56.39 375.369 56.9267 374.506 58C373.642 59.0733 373.211 60.6483 373.211 62.725V63.39C373.211 65.42 373.631 66.9833 374.471 68.08C375.334 69.1767 376.559 69.725 378.146 69.725C379.686 69.725 380.887 69.1883 381.751 68.115C382.637 67.0183 383.081 65.4433 383.081 63.39V62.725C383.081 60.695 382.649 59.1317 381.786 58.035C380.946 56.9383 379.732 56.39 378.146 56.39ZM409.968 53.765C411.812 53.765 413.247 54.3017 414.273 55.375C415.3 56.4483 415.813 57.9767 415.813 59.96V72H412.523V60.555C412.523 57.7783 411.45 56.39 409.303 56.39C408.557 56.39 407.857 56.6117 407.203 57.055C406.573 57.4983 406.06 58.105 405.663 58.875C405.29 59.6217 405.103 60.45 405.103 61.36V72H401.813V60.555C401.813 57.7783 400.74 56.39 398.593 56.39C397.847 56.39 397.147 56.6117 396.493 57.055C395.863 57.4983 395.35 58.105 394.953 58.875C394.58 59.6217 394.393 60.45 394.393 61.36V72H391.103V54.115H393.483L393.938 56.74C395.292 54.7567 397.17 53.765 399.573 53.765C401.93 53.765 403.563 54.7567 404.473 56.74C405.267 55.62 406.118 54.85 407.028 54.43C407.938 53.9867 408.918 53.765 409.968 53.765Z" fill="white"/>
</g>
<defs>
<filter id="filter0_dd_744_13" x="0" y="0" width="479" height="110" filterUnits="userSpaceOnUse" color-interpolation-filters="sRGB">
<feFlood flood-opacity="0" result="BackgroundImageFix"/>
<feColorMatrix in="SourceAlpha" type="matrix" values="0 0 0 0 0 0 0 0 0 0 0 0 0 0 0 0 0 0 127 0" result="hardAlpha"/>
<feOffset dy="4"/>
<feGaussianBlur stdDeviation="2"/>
<feComposite in2="hardAlpha" operator="out"/>
<feColorMatrix type="matrix" values="0 0 0 0 0 0 0 0 0 0 0 0 0 0 0 0 0 0 0.25 0"/>
<feBlend mode="normal" in2="BackgroundImageFix" result="effect1_dropShadow_744_13"/>
<feColorMatrix in="SourceAlpha" type="matrix" values="0 0 0 0 0 0 0 0 0 0 0 0 0 0 0 0 0 0 127 0" result="hardAlpha"/>
<feOffset dy="4"/>
<feGaussianBlur stdDeviation="2"/>
<feComposite in2="hardAlpha" operator="out"/>
<feColorMatrix type="matrix" values="0 0 0 0 0 0 0 0 0 0 0 0 0 0 0 0 0 0 0.25 0"/>
<feBlend mode="normal" in2="effect1_dropShadow_744_13" result="effect2_dropShadow_744_13"/>
<feBlend mode="normal" in="SourceGraphic" in2="effect2_dropShadow_744_13" result="shape"/>
</filter>
</defs>
</svg>
