<svg width="66" height="66" viewBox="0 0 66 66" fill="none" xmlns="http://www.w3.org/2000/svg">
<rect x="2.25" y="3.25" width="63.5" height="62.5" stroke="white" stroke-width="0.5"/>
<rect x="0.25" y="0.25" width="63.5" height="62.5" fill="black" stroke="white" stroke-width="0.5"/>
<path d="M19.1524 39.32C17.3604 39.32 15.9204 38.84 14.8324 37.88C13.7444 36.8987 13.2004 35.448 13.2004 33.528H16.2724C16.2724 34.0187 16.347 34.488 16.4964 34.936C16.667 35.384 16.955 35.7573 17.3604 36.056C17.7657 36.3547 18.331 36.504 19.0564 36.504C19.995 36.504 20.6777 36.2373 21.1044 35.704C21.5524 35.1493 21.7764 34.168 21.7764 32.76V23.512H18.1284V20.984H25.0404V32.248C25.0404 33.6987 24.8804 34.9573 24.5604 36.024C24.2617 37.0907 23.6857 37.912 22.8324 38.488C21.979 39.0427 20.7524 39.32 19.1524 39.32Z" fill="white"/>
<path d="M30.106 52V33.984H35.802L40.026 50.592H40.09L44.282 33.984H49.946V52H46.554L46.778 35.456H46.746L42.426 52H37.626L33.37 35.456H33.306L33.498 52H30.106Z" fill="white"/>
<rect x="0.25" y="0.25" width="63.5" height="10.5" stroke="white" stroke-width="0.5"/>
<rect x="54.25" y="2.25" width="6.54529" height="6.36916" fill="black" stroke="white" stroke-width="0.5"/>
<path d="M54.2832 2.46387L60.7149 8.43619" stroke="white" stroke-width="0.5" stroke-linecap="round"/>
<path d="M54.2832 8.43652L60.7149 2.46421" stroke="white" stroke-width="0.5" stroke-linecap="round"/>
</svg>
