<svg width="395" height="262" viewBox="0 0 395 262" fill="none" xmlns="http://www.w3.org/2000/svg">
<rect x="9.5" y="9.5" width="385" height="199" fill="#E5E5E5" stroke="white"/>
<rect x="0.5" y="0.5" width="385" height="199" fill="black" stroke="white"/>
<path d="M77.6798 106.64C74.0958 106.64 71.2158 105.68 69.0398 103.76C66.8638 101.797 65.7758 98.896 65.7758 95.056H71.9198C71.9198 96.0373 72.0691 96.976 72.3678 97.872C72.7091 98.768 73.2851 99.5147 74.0958 100.112C74.9064 100.709 76.0371 101.008 77.4878 101.008C79.3651 101.008 80.7304 100.475 81.5838 99.408C82.4798 98.2987 82.9278 96.336 82.9278 93.52V75.024H75.6318V69.968H89.4558V92.496C89.4558 95.3973 89.1358 97.9147 88.4958 100.048C87.8984 102.181 86.7464 103.824 85.0398 104.976C83.3331 106.085 80.8798 106.64 77.6798 106.64ZM108.19 106.64C105.204 106.64 102.729 106.064 100.766 104.912C98.8036 103.76 97.3316 102.181 96.3503 100.176C95.3689 98.128 94.8783 95.8027 94.8783 93.2C94.8356 89.2747 95.9236 86.0533 98.1423 83.536C100.404 80.976 103.753 79.696 108.19 79.696C112.5 79.696 115.764 80.9333 117.982 83.408C120.244 85.8827 121.374 89.1467 121.374 93.2C121.374 95.7173 120.905 98 119.966 100.048C119.028 102.096 117.577 103.717 115.614 104.912C113.652 106.064 111.177 106.64 108.19 106.64ZM108.19 101.136C110.068 101.136 111.497 100.731 112.478 99.92C113.502 99.1093 114.185 98.0853 114.526 96.848C114.868 95.568 115.038 94.288 115.038 93.008C115.038 91.6853 114.868 90.384 114.526 89.104C114.185 87.824 113.502 86.7787 112.478 85.968C111.497 85.1573 110.068 84.752 108.19 84.752C106.27 84.752 104.798 85.1787 103.774 86.032C102.793 86.8427 102.11 87.888 101.726 89.168C101.385 90.4053 101.214 91.6853 101.214 93.008C101.214 94.288 101.385 95.568 101.726 96.848C102.11 98.0853 102.793 99.1093 103.774 99.92C104.798 100.731 106.27 101.136 108.19 101.136ZM138.25 106.64C135.22 106.64 132.746 106 130.826 104.72C128.948 103.397 127.54 101.733 126.602 99.728C125.706 97.68 125.236 95.5253 125.194 93.264C125.151 90.6187 125.642 88.272 126.666 86.224C127.732 84.1333 129.226 82.512 131.146 81.36C133.108 80.1653 135.412 79.568 138.058 79.568C140.404 79.568 142.495 80.08 144.33 81.104C146.207 82.128 147.7 83.5787 148.81 85.456C149.919 87.2907 150.495 89.4667 150.538 91.984C150.538 92.0693 150.538 92.304 150.538 92.688C150.538 93.072 150.538 93.392 150.538 93.648H131.402C131.402 96.08 131.999 97.9573 133.194 99.28C134.388 100.56 136.031 101.2 138.122 101.2C139.743 101.2 141.087 100.795 142.154 99.984C143.263 99.1733 143.924 98.1067 144.138 96.784H150.474C150.175 99.5573 148.98 101.904 146.89 103.824C144.799 105.701 141.919 106.64 138.25 106.64ZM131.594 90.704H144.01C143.967 90.4053 143.86 89.936 143.69 89.296C143.562 88.656 143.284 87.9947 142.858 87.312C142.474 86.6293 141.876 86.0533 141.066 85.584C140.255 85.1147 139.21 84.88 137.93 84.88C136.223 84.88 134.922 85.2427 134.026 85.968C133.172 86.6507 132.554 87.4613 132.17 88.4C131.828 89.296 131.636 90.064 131.594 90.704ZM156.228 106V69.968H162.628V106H156.228ZM216.136 87.952C216.136 92.688 215.198 96.3787 213.32 99.024C211.486 101.627 208.883 103.44 205.512 104.464C202.142 105.488 198.174 106 193.608 106H183.688V69.968H193.608C198.174 69.968 202.142 70.6507 205.512 72.016C208.883 73.3387 211.486 75.3227 213.32 77.968C215.198 80.6133 216.136 83.9413 216.136 87.952ZM190.152 100.624H195.464C198.28 100.624 200.712 100.304 202.76 99.664C204.808 98.9813 206.387 97.7227 207.496 95.888C208.606 94.0533 209.16 91.3867 209.16 87.888C209.16 83.7493 207.923 80.6773 205.448 78.672C203.016 76.624 199.688 75.6 195.464 75.6H190.152V100.624ZM229.861 106.64C226.234 106.64 223.653 105.403 222.117 102.928C220.581 100.453 219.813 97.2107 219.813 93.2C219.813 89.1467 220.581 85.8827 222.117 83.408C223.695 80.8907 226.277 79.632 229.861 79.632C231.909 79.632 233.53 79.9947 234.725 80.72C235.919 81.4027 236.815 82.1707 237.413 83.024C238.01 83.8773 238.373 84.5173 238.501 84.944H238.629V79.696H245.349V106H239.717L238.629 101.712H238.501C238.373 102.096 237.989 102.693 237.349 103.504C236.751 104.272 235.834 104.997 234.597 105.68C233.402 106.32 231.823 106.64 229.861 106.64ZM232.549 101.136C234.938 101.136 236.538 100.389 237.349 98.896C238.202 97.36 238.629 95.4827 238.629 93.264C238.629 90.9173 238.202 89.0187 237.349 87.568C236.495 86.1173 234.895 85.392 232.549 85.392C230.885 85.392 229.583 85.7547 228.645 86.48C227.749 87.2053 227.109 88.1653 226.725 89.36C226.383 90.512 226.213 91.8133 226.213 93.264C226.213 94.7147 226.383 96.0373 226.725 97.232C227.109 98.4267 227.749 99.3867 228.645 100.112C229.583 100.795 230.885 101.136 232.549 101.136ZM268.013 79.696H274.413V80.784L265.389 106H256.301L247.277 80.848V79.696H253.549L260.909 100.624H261.037L268.013 79.696ZM282.814 76.816C281.406 76.8587 280.467 76.5387 279.998 75.856C279.571 75.1307 279.358 74.2773 279.358 73.296C279.358 72.3573 279.592 71.5467 280.062 70.864C280.531 70.1813 281.448 69.84 282.814 69.84C284.136 69.84 285.011 70.1813 285.438 70.864C285.907 71.5467 286.142 72.3573 286.142 73.296C286.142 74.2773 285.907 75.1093 285.438 75.792C285.011 76.432 284.136 76.7733 282.814 76.816ZM279.486 106V79.696H286.014V106H279.486ZM302.912 106.64C298.986 106.64 296.192 105.424 294.528 102.992C292.864 100.517 292.032 97.296 292.032 93.328C292.032 89.1893 292.885 85.8827 294.592 83.408C296.298 80.9333 299.072 79.696 302.912 79.696C304.576 79.696 305.962 79.9733 307.072 80.528C308.224 81.04 309.12 81.6587 309.76 82.384C310.442 83.1093 310.933 83.7707 311.232 84.368C311.53 84.9653 311.701 85.328 311.744 85.456H311.872V69.968H318.592V106H312.96L311.872 101.328H311.744C311.701 101.413 311.509 101.733 311.168 102.288C310.869 102.843 310.357 103.461 309.632 104.144C308.949 104.827 308.053 105.424 306.944 105.936C305.834 106.405 304.49 106.64 302.912 106.64ZM305.024 101.136C307.456 101.136 309.184 100.411 310.208 98.96C311.274 97.4667 311.808 95.568 311.808 93.264C311.808 91.0453 311.296 89.2107 310.272 87.76C309.29 86.2667 307.605 85.52 305.216 85.52C303.466 85.52 302.08 85.904 301.056 86.672C300.074 87.3973 299.392 88.3573 299.008 89.552C298.624 90.704 298.432 91.9413 298.432 93.264C298.432 94.5867 298.602 95.8667 298.944 97.104C299.328 98.2987 299.989 99.28 300.928 100.048C301.909 100.773 303.274 101.136 305.024 101.136Z" fill="white"/>
<path d="M66.962 162V125.968H78.354L86.802 159.184H86.93L95.314 125.968H106.642V162H99.858L100.306 128.912H100.242L91.602 162H82.002L73.49 128.912H73.362L73.746 162H66.962ZM121.642 162.64C118.015 162.64 115.434 161.403 113.898 158.928C112.362 156.453 111.594 153.211 111.594 149.2C111.594 145.147 112.362 141.883 113.898 139.408C115.477 136.891 118.058 135.632 121.642 135.632C123.69 135.632 125.311 135.995 126.506 136.72C127.701 137.403 128.597 138.171 129.194 139.024C129.791 139.877 130.154 140.517 130.282 140.944H130.41V135.696H137.13V162H131.498L130.41 157.712H130.282C130.154 158.096 129.77 158.693 129.13 159.504C128.533 160.272 127.615 160.997 126.378 161.68C125.183 162.32 123.605 162.64 121.642 162.64ZM124.33 157.136C126.719 157.136 128.319 156.389 129.13 154.896C129.983 153.36 130.41 151.483 130.41 149.264C130.41 146.917 129.983 145.019 129.13 143.568C128.277 142.117 126.677 141.392 124.33 141.392C122.666 141.392 121.365 141.755 120.426 142.48C119.53 143.205 118.89 144.165 118.506 145.36C118.165 146.512 117.994 147.813 117.994 149.264C117.994 150.715 118.165 152.037 118.506 153.232C118.89 154.427 119.53 155.387 120.426 156.112C121.365 156.795 122.666 157.136 124.33 157.136ZM126.25 132.88H123.306V132.048L126.186 125.648H131.69V126.8L126.25 132.88ZM141.938 162V135.696H148.018L148.466 142.992C148.722 141.883 149.213 140.773 149.938 139.664C150.706 138.512 151.751 137.573 153.074 136.848C154.439 136.08 156.189 135.696 158.322 135.696H159.282V142.992H158.322C154.653 142.992 152.093 143.589 150.642 144.784C149.191 145.936 148.466 147.899 148.466 150.672V162H141.938ZM173.552 162.64C169.669 162.64 166.853 161.445 165.104 159.056C163.397 156.624 162.544 153.381 162.544 149.328C162.544 145.232 163.397 141.947 165.104 139.472C166.853 136.955 169.669 135.696 173.552 135.696C175.216 135.696 176.602 135.973 177.712 136.528C178.821 137.04 179.696 137.659 180.336 138.384C180.976 139.109 181.424 139.771 181.68 140.368C181.978 140.965 182.149 141.328 182.192 141.456H182.32L183.344 135.696H189.04V173.712H182.32V157.328H182.192C182.149 157.413 181.957 157.733 181.616 158.288C181.317 158.843 180.826 159.461 180.144 160.144C179.504 160.827 178.629 161.424 177.52 161.936C176.453 162.405 175.13 162.64 173.552 162.64ZM175.472 157.136C177.861 157.136 179.589 156.411 180.656 154.96C181.722 153.467 182.256 151.568 182.256 149.264C182.256 147.045 181.744 145.211 180.72 143.76C179.738 142.267 178.053 141.52 175.664 141.52C173.872 141.52 172.485 141.904 171.504 142.672C170.522 143.397 169.818 144.357 169.392 145.552C169.008 146.704 168.816 147.941 168.816 149.264C168.816 150.587 169.008 151.867 169.392 153.104C169.776 154.299 170.437 155.28 171.376 156.048C172.357 156.773 173.722 157.136 175.472 157.136ZM203.708 162.64C201.404 162.64 199.612 162.192 198.332 161.296C197.052 160.4 196.113 159.248 195.516 157.84C194.961 156.432 194.62 154.96 194.492 153.424C194.364 151.845 194.299 150.416 194.299 149.136V135.696H200.635V149.136C200.635 150.459 200.764 151.717 201.02 152.912C201.276 154.107 201.809 155.067 202.62 155.792C203.473 156.517 204.753 156.88 206.46 156.88C208.124 156.88 209.382 156.517 210.236 155.792C211.089 155.024 211.665 154.064 211.964 152.912C212.262 151.76 212.433 150.565 212.476 149.328L212.54 135.696H219.196V162H213.628L212.54 157.008H212.412C212.326 157.264 212.113 157.691 211.772 158.288C211.43 158.885 210.918 159.525 210.236 160.208C209.596 160.891 208.742 161.467 207.676 161.936C206.609 162.405 205.286 162.64 203.708 162.64ZM236.344 162.64C233.314 162.64 230.84 162 228.92 160.72C227.042 159.397 225.634 157.733 224.696 155.728C223.8 153.68 223.33 151.525 223.288 149.264C223.245 146.619 223.736 144.272 224.76 142.224C225.826 140.133 227.32 138.512 229.24 137.36C231.202 136.165 233.506 135.568 236.152 135.568C238.498 135.568 240.589 136.08 242.424 137.104C244.301 138.128 245.794 139.579 246.904 141.456C248.013 143.291 248.589 145.467 248.632 147.984C248.632 148.069 248.632 148.304 248.632 148.688C248.632 149.072 248.632 149.392 248.632 149.648H229.496C229.496 152.08 230.093 153.957 231.288 155.28C232.482 156.56 234.125 157.2 236.216 157.2C237.837 157.2 239.181 156.795 240.248 155.984C241.357 155.173 242.018 154.107 242.232 152.784H248.568C248.269 155.557 247.074 157.904 244.984 159.824C242.893 161.701 240.013 162.64 236.344 162.64ZM229.688 146.704H242.104C242.061 146.405 241.954 145.936 241.784 145.296C241.656 144.656 241.378 143.995 240.952 143.312C240.568 142.629 239.97 142.053 239.16 141.584C238.349 141.115 237.304 140.88 236.024 140.88C234.317 140.88 233.016 141.243 232.12 141.968C231.266 142.651 230.648 143.461 230.264 144.4C229.922 145.296 229.73 146.064 229.688 146.704ZM253.49 162V157.264L269.426 140.496H254.386V135.568H277.042V140.304L261.426 157.072H277.042V162H253.49Z" fill="white"/>
<rect x="0.5" y="0.5" width="385" height="33" stroke="white"/>
<rect x="352.5" y="7.5" width="20.5385" height="20" fill="black" stroke="white"/>
<line x1="352.346" y1="7.47915" x2="373.346" y2="27.6392" stroke="white"/>
<line x1="352.486" y1="27.6464" x2="372.646" y2="7.48645" stroke="white"/>
<rect x="0.5" y="215.5" width="394" height="46" fill="black" stroke="white"/>
<path d="M80.8273 238.72C80.8273 241.68 80.2407 243.987 79.0673 245.64C77.9207 247.267 76.294 248.4 74.1873 249.04C72.0807 249.68 69.6007 250 66.7473 250H60.5473V227.48H66.7473C69.6007 227.48 72.0807 227.907 74.1873 228.76C76.294 229.587 77.9207 230.827 79.0673 232.48C80.2407 234.133 80.8273 236.213 80.8273 238.72ZM64.5873 246.64H67.9073C69.6673 246.64 71.1873 246.44 72.4673 246.04C73.7473 245.613 74.734 244.827 75.4273 243.68C76.1207 242.533 76.4673 240.867 76.4673 238.68C76.4673 236.093 75.694 234.173 74.1473 232.92C72.6273 231.64 70.5473 231 67.9073 231H64.5873V246.64ZM91.4452 250.4C89.5518 250.4 88.0052 250 86.8052 249.2C85.6318 248.373 84.7518 247.333 84.1652 246.08C83.6052 244.8 83.3118 243.453 83.2852 242.04C83.2585 240.387 83.5652 238.92 84.2052 237.64C84.8718 236.333 85.8052 235.32 87.0052 234.6C88.2318 233.853 89.6718 233.48 91.3252 233.48C92.7918 233.48 94.0985 233.8 95.2452 234.44C96.4185 235.08 97.3518 235.987 98.0452 237.16C98.7385 238.307 99.0985 239.667 99.1252 241.24C99.1252 241.293 99.1252 241.44 99.1252 241.68C99.1252 241.92 99.1252 242.12 99.1252 242.28H87.1652C87.1652 243.8 87.5385 244.973 88.2852 245.8C89.0318 246.6 90.0585 247 91.3652 247C92.3785 247 93.2185 246.747 93.8852 246.24C94.5785 245.733 94.9918 245.067 95.1252 244.24H99.0852C98.8985 245.973 98.1518 247.44 96.8452 248.64C95.5385 249.813 93.7385 250.4 91.4452 250.4ZM87.2852 240.44H95.0452C95.0185 240.253 94.9518 239.96 94.8452 239.56C94.7652 239.16 94.5918 238.747 94.3252 238.32C94.0852 237.893 93.7118 237.533 93.2052 237.24C92.6985 236.947 92.0452 236.8 91.2452 236.8C90.1785 236.8 89.3652 237.027 88.8052 237.48C88.2718 237.907 87.8852 238.413 87.6452 239C87.4318 239.56 87.3118 240.04 87.2852 240.44ZM109.162 250.4C108.468 250.4 107.695 250.28 106.842 250.04C106.015 249.8 105.215 249.44 104.442 248.96C103.695 248.48 103.068 247.867 102.562 247.12C102.082 246.347 101.842 245.44 101.842 244.4H105.602C105.602 244.453 105.615 244.64 105.642 244.96C105.668 245.253 105.775 245.6 105.962 246C106.175 246.373 106.522 246.707 107.002 247C107.482 247.293 108.175 247.44 109.082 247.44C110.148 247.44 110.948 247.253 111.482 246.88C112.015 246.48 112.282 246.027 112.282 245.52C112.282 244.933 112.028 244.48 111.522 244.16C111.042 243.813 110.415 243.533 109.642 243.32C108.868 243.107 108.042 242.893 107.162 242.68C106.308 242.44 105.495 242.133 104.722 241.76C103.975 241.387 103.362 240.88 102.882 240.24C102.402 239.573 102.162 238.72 102.162 237.68C102.162 236.16 102.775 235.013 104.002 234.24C105.228 233.44 106.788 233.04 108.682 233.04C110.015 233.04 111.255 233.253 112.402 233.68C113.548 234.08 114.468 234.733 115.162 235.64C115.855 236.52 116.202 237.68 116.202 239.12H112.442C112.468 238.293 112.282 237.68 111.882 237.28C111.508 236.853 111.028 236.56 110.442 236.4C109.882 236.24 109.335 236.16 108.802 236.16C107.842 236.16 107.108 236.333 106.602 236.68C106.122 237 105.882 237.427 105.882 237.96C105.882 238.573 106.122 239.053 106.602 239.4C107.108 239.72 107.748 239.987 108.522 240.2C109.322 240.413 110.148 240.64 111.002 240.88C111.882 241.093 112.708 241.387 113.482 241.76C114.282 242.133 114.922 242.64 115.402 243.28C115.908 243.893 116.162 244.72 116.162 245.76C116.162 247.333 115.508 248.507 114.202 249.28C112.922 250.027 111.242 250.4 109.162 250.4ZM124.483 250.4C122.217 250.4 120.603 249.627 119.643 248.08C118.683 246.533 118.203 244.507 118.203 242C118.203 239.467 118.683 237.427 119.643 235.88C120.63 234.307 122.243 233.52 124.483 233.52C125.763 233.52 126.777 233.747 127.523 234.2C128.27 234.627 128.83 235.107 129.203 235.64C129.577 236.173 129.803 236.573 129.883 236.84H129.963V233.56H134.163V250H130.643L129.963 247.32H129.883C129.803 247.56 129.563 247.933 129.163 248.44C128.79 248.92 128.217 249.373 127.443 249.8C126.697 250.2 125.71 250.4 124.483 250.4ZM126.163 246.96C127.657 246.96 128.657 246.493 129.163 245.56C129.697 244.6 129.963 243.427 129.963 242.04C129.963 240.573 129.697 239.387 129.163 238.48C128.63 237.573 127.63 237.12 126.163 237.12C125.123 237.12 124.31 237.347 123.723 237.8C123.163 238.253 122.763 238.853 122.523 239.6C122.31 240.32 122.203 241.133 122.203 242.04C122.203 242.947 122.31 243.773 122.523 244.52C122.763 245.267 123.163 245.867 123.723 246.32C124.31 246.747 125.123 246.96 126.163 246.96ZM137.168 250V233.56H140.968L141.248 238.12C141.408 237.427 141.715 236.733 142.168 236.04C142.648 235.32 143.302 234.733 144.128 234.28C144.982 233.8 146.075 233.56 147.408 233.56H148.008V238.12H147.408C145.115 238.12 143.515 238.493 142.608 239.24C141.702 239.96 141.248 241.187 141.248 242.92V250H137.168ZM150.801 250V233.56H154.601L154.881 238.12C155.041 237.427 155.348 236.733 155.801 236.04C156.281 235.32 156.934 234.733 157.761 234.28C158.614 233.8 159.708 233.56 161.041 233.56H161.641V238.12H161.041C158.748 238.12 157.148 238.493 156.241 239.24C155.334 239.96 154.881 241.187 154.881 242.92V250H150.801ZM171.76 250.4C169.893 250.4 168.346 250.04 167.12 249.32C165.893 248.6 164.973 247.613 164.36 246.36C163.746 245.08 163.44 243.627 163.44 242C163.413 239.547 164.093 237.533 165.48 235.96C166.893 234.36 168.986 233.56 171.76 233.56C174.453 233.56 176.493 234.333 177.88 235.88C179.293 237.427 180 239.467 180 242C180 243.573 179.706 245 179.12 246.28C178.533 247.56 177.626 248.573 176.4 249.32C175.173 250.04 173.626 250.4 171.76 250.4ZM171.76 246.96C172.933 246.96 173.826 246.707 174.44 246.2C175.08 245.693 175.506 245.053 175.72 244.28C175.933 243.48 176.04 242.68 176.04 241.88C176.04 241.053 175.933 240.24 175.72 239.44C175.506 238.64 175.08 237.987 174.44 237.48C173.826 236.973 172.933 236.72 171.76 236.72C170.56 236.72 169.64 236.987 169 237.52C168.386 238.027 167.96 238.68 167.72 239.48C167.506 240.253 167.4 241.053 167.4 241.88C167.4 242.68 167.506 243.48 167.72 244.28C167.96 245.053 168.386 245.693 169 246.2C169.64 246.707 170.56 246.96 171.76 246.96ZM183.307 250V227.48H187.307V250H183.307ZM191.158 250V227.48H195.158V250H191.158ZM204.21 250.4C201.943 250.4 200.33 249.627 199.37 248.08C198.41 246.533 197.93 244.507 197.93 242C197.93 239.467 198.41 237.427 199.37 235.88C200.357 234.307 201.97 233.52 204.21 233.52C205.49 233.52 206.503 233.747 207.25 234.2C207.997 234.627 208.557 235.107 208.93 235.64C209.303 236.173 209.53 236.573 209.61 236.84H209.69V233.56H213.89V250H210.37L209.69 247.32H209.61C209.53 247.56 209.29 247.933 208.89 248.44C208.517 248.92 207.943 249.373 207.17 249.8C206.423 250.2 205.437 250.4 204.21 250.4ZM205.89 246.96C207.383 246.96 208.383 246.493 208.89 245.56C209.423 244.6 209.69 243.427 209.69 242.04C209.69 240.573 209.423 239.387 208.89 238.48C208.357 237.573 207.357 237.12 205.89 237.12C204.85 237.12 204.037 237.347 203.45 237.8C202.89 238.253 202.49 238.853 202.25 239.6C202.037 240.32 201.93 241.133 201.93 242.04C201.93 242.947 202.037 243.773 202.25 244.52C202.49 245.267 202.89 245.867 203.45 246.32C204.037 246.747 204.85 246.96 205.89 246.96ZM223.695 250.4C221.242 250.4 219.495 249.64 218.455 248.12C217.415 246.573 216.895 244.56 216.895 242.08C216.895 239.493 217.428 237.427 218.495 235.88C219.562 234.333 221.295 233.56 223.695 233.56C224.735 233.56 225.602 233.733 226.295 234.08C227.015 234.4 227.575 234.787 227.975 235.24C228.402 235.693 228.708 236.107 228.895 236.48C229.082 236.853 229.188 237.08 229.215 237.16H229.295V227.48H233.495V250H229.975L229.295 247.08H229.215C229.188 247.133 229.068 247.333 228.855 247.68C228.668 248.027 228.348 248.413 227.895 248.84C227.468 249.267 226.908 249.64 226.215 249.96C225.522 250.253 224.682 250.4 223.695 250.4ZM225.015 246.96C226.535 246.96 227.615 246.507 228.255 245.6C228.922 244.667 229.255 243.48 229.255 242.04C229.255 240.653 228.935 239.507 228.295 238.6C227.682 237.667 226.628 237.2 225.135 237.2C224.042 237.2 223.175 237.44 222.535 237.92C221.922 238.373 221.495 238.973 221.255 239.72C221.015 240.44 220.895 241.213 220.895 242.04C220.895 242.867 221.002 243.667 221.215 244.44C221.455 245.187 221.868 245.8 222.455 246.28C223.068 246.733 223.922 246.96 225.015 246.96ZM244.65 250.4C242.783 250.4 241.237 250.04 240.01 249.32C238.783 248.6 237.863 247.613 237.25 246.36C236.637 245.08 236.33 243.627 236.33 242C236.303 239.547 236.983 237.533 238.37 235.96C239.783 234.36 241.877 233.56 244.65 233.56C247.343 233.56 249.383 234.333 250.77 235.88C252.183 237.427 252.89 239.467 252.89 242C252.89 243.573 252.597 245 252.01 246.28C251.423 247.56 250.517 248.573 249.29 249.32C248.063 250.04 246.517 250.4 244.65 250.4ZM244.65 246.96C245.823 246.96 246.717 246.707 247.33 246.2C247.97 245.693 248.397 245.053 248.61 244.28C248.823 243.48 248.93 242.68 248.93 241.88C248.93 241.053 248.823 240.24 248.61 239.44C248.397 238.64 247.97 237.987 247.33 237.48C246.717 236.973 245.823 236.72 244.65 236.72C243.45 236.72 242.53 236.987 241.89 237.52C241.277 238.027 240.85 238.68 240.61 239.48C240.397 240.253 240.29 241.053 240.29 241.88C240.29 242.68 240.397 243.48 240.61 244.28C240.85 245.053 241.277 245.693 241.89 246.2C242.53 246.707 243.45 246.96 244.65 246.96ZM255.957 250V233.56H259.757L260.037 238.12C260.197 237.427 260.504 236.733 260.957 236.04C261.437 235.32 262.091 234.733 262.917 234.28C263.771 233.8 264.864 233.56 266.197 233.56H266.797V238.12H266.197C263.904 238.12 262.304 238.493 261.397 239.24C260.491 239.96 260.037 241.187 260.037 242.92V250H255.957ZM304.184 227.48H308.504L303.104 250H296.544L292.784 232.72L289.064 250H282.464L277.024 227.48H281.384L285.744 248.28L290.624 227.56L290.584 227.48H294.944L299.824 248.28L304.184 227.48ZM317.89 250.4C315.997 250.4 314.45 250 313.25 249.2C312.077 248.373 311.197 247.333 310.61 246.08C310.05 244.8 309.757 243.453 309.73 242.04C309.704 240.387 310.01 238.92 310.65 237.64C311.317 236.333 312.25 235.32 313.45 234.6C314.677 233.853 316.117 233.48 317.77 233.48C319.237 233.48 320.544 233.8 321.69 234.44C322.864 235.08 323.797 235.987 324.49 237.16C325.184 238.307 325.544 239.667 325.57 241.24C325.57 241.293 325.57 241.44 325.57 241.68C325.57 241.92 325.57 242.12 325.57 242.28H313.61C313.61 243.8 313.984 244.973 314.73 245.8C315.477 246.6 316.504 247 317.81 247C318.824 247 319.664 246.747 320.33 246.24C321.024 245.733 321.437 245.067 321.57 244.24H325.53C325.344 245.973 324.597 247.44 323.29 248.64C321.984 249.813 320.184 250.4 317.89 250.4ZM313.73 240.44H321.49C321.464 240.253 321.397 239.96 321.29 239.56C321.21 239.16 321.037 238.747 320.77 238.32C320.53 237.893 320.157 237.533 319.65 237.24C319.144 236.947 318.49 236.8 317.69 236.8C316.624 236.8 315.81 237.027 315.25 237.48C314.717 237.907 314.33 238.413 314.09 239C313.877 239.56 313.757 240.04 313.73 240.44ZM338.727 250.4C337.74 250.4 336.9 250.253 336.207 249.96C335.514 249.64 334.94 249.267 334.487 248.84C334.06 248.413 333.74 248.027 333.527 247.68C333.34 247.333 333.234 247.133 333.207 247.08H333.127L332.447 250H328.927V227.48H333.127V237.16H333.207C333.234 237.08 333.34 236.853 333.527 236.48C333.714 236.107 334.007 235.693 334.407 235.24C334.834 234.787 335.394 234.4 336.087 234.08C336.807 233.733 337.687 233.56 338.727 233.56C341.127 233.56 342.86 234.333 343.927 235.88C344.994 237.427 345.527 239.493 345.527 242.08C345.527 244.587 344.994 246.6 343.927 248.12C342.887 249.64 341.154 250.4 338.727 250.4ZM337.407 246.96C338.5 246.96 339.34 246.733 339.927 246.28C340.54 245.8 340.954 245.187 341.167 244.44C341.407 243.667 341.527 242.867 341.527 242.04C341.527 241.213 341.407 240.44 341.167 239.72C340.927 238.973 340.487 238.373 339.847 237.92C339.234 237.44 338.38 237.2 337.287 237.2C335.794 237.2 334.727 237.667 334.087 238.6C333.474 239.507 333.167 240.653 333.167 242.04C333.167 243.48 333.487 244.667 334.127 245.6C334.794 246.507 335.887 246.96 337.407 246.96Z" fill="white"/>
</svg>
